{
  "accessors": [
    {
      "bufferView": 2,
      "componentType": 5126,
      "count": 22335,
      "max": [
        2.9477109909057617,
        8.076419830322266,
        5.067431926727295
      ],
      "min": [
        -2.9477109909057617,
        -6.693573951721191,
        -4.817448139190674
      ],
      "type": "VEC3"
    },
    {
      "bufferView": 2,
      "byteOffset": 268020,
      "componentType": 5126,
      "count": 22335,
      "max": [
        0.9999987483024597,
        0.9998961091041565,
        0.9999698996543884
      ],
      "min": [
        -0.9999605417251587,
        -0.9994704723358154,
        -0.9999790191650391
      ],
      "type": "VEC3"
    },
    {
      "bufferView": 3,
      "componentType": 5126,
      "count": 22335,
      "max": [
        0.9998180866241455,
        0.9993743300437927,
        0.9998264312744141,
        1.0
      ],
      "min": [
        -0.9997297525405884,
        -0.9999180436134338,
        -0.999970555305481,
        -1.0
      ],
      "type": "VEC4"
    },
    {
      "bufferView": 1,
      "componentType": 5126,
      "count": 22335,
      "max": [
        0.9990230202674866,
        0.9990230202674866
      ],
      "min": [
        0.0009769999887794256,
        0.0009769999887794256
      ],
      "type": "VEC2"
    },
    {
      "bufferView": 0,
      "componentType": 5125,
      "count": 115152,
      "type": "SCALAR"
    }
  ],
  "asset": {
    "extras": {
      "author": "Andrea Spognetta (Spogna) (https://sketchfab.com/spogna)",
      "license": "CC-BY-NC-4.0 (http://creativecommons.org/licenses/by-nc/4.0/)",
      "source": "https://sketchfab.com/3d-models/frau-shoe-d46fcca637884f00929c311419d91a63",
      "title": "Frau Shoe"
    },
    "generator": "Sketchfab-12.67.0",
    "version": "2.0"
  },
  "bufferViews": [
    {
      "buffer": 0,
      "byteLength": 460608,
      "name": "floatBufferViews",
      "target": 34963
    },
    {
      "buffer": 0,
      "byteLength": 178680,
      "byteOffset": 460608,
      "byteStride": 8,
      "name": "floatBufferViews",
      "target": 34962
    },
    {
      "buffer": 0,
      "byteLength": 536040,
      "byteOffset": 639288,
      "byteStride": 12,
      "name": "floatBufferViews",
      "target": 34962
    },
    {
      "buffer": 0,
      "byteLength": 357360,
      "byteOffset": 1175328,
      "byteStride": 16,
      "name": "floatBufferViews",
      "target": 34962
    }
  ],
  "buffers": [
    {
      "byteLength": 1532688,
      "uri": "scene.bin"
    }
  ],
  "extensionsRequired": [
    "KHR_materials_pbrSpecularGlossiness"
  ],
  "extensionsUsed": [
    "KHR_materials_pbrSpecularGlossiness"
  ],
  "images": [
    {
      "uri": "textures/material_0_diffuse.jpeg"
    },
    {
      "uri": "textures/material_0_normal.jpeg"
    },
    {
      "uri": "textures/material_0_occlusion.png"
    }
  ],
  "materials": [
    {
      "doubleSided": true,
      "extensions": {
        "KHR_materials_pbrSpecularGlossiness": {
          "diffuseFactor": [
            1.0,
            1.0,
            1.0,
            1.0
          ],
          "diffuseTexture": {
            "index": 0
          },
          "glossinessFactor": 0.0,
          "specularFactor": [
            0.0,
            0.0,
            0.0
          ]
        }
      },
      "name": "material_0",
      "normalTexture": {
        "index": 1
      },
      "occlusionTexture": {
        "index": 2
      }
    }
  ],
  "meshes": [
    {
      "name": "Object_0",
      "primitives": [
        {
          "attributes": {
            "NORMAL": 1,
            "POSITION": 0,
            "TANGENT": 2,
            "TEXCOORD_0": 3
          },
          "indices": 4,
          "material": 0,
          "mode": 4
        }
      ]
    }
  ],
  "nodes": [
    {
      "children": [
        1
      ],
      "matrix": [
        1.0,
        0.0,
        0.0,
        0.0,
        0.0,
        2.220446049250313e-16,
        -1.0,
        0.0,
        0.0,
        1.0,
        2.220446049250313e-16,
        0.0,
        0.0,
        0.0,
        0.0,
        1.0
      ],
      "name": "Sketchfab_model"
    },
    {
      "children": [
        2
      ],
      "name": "scarpa.obj.cleaner.materialmerger.gles"
    },
    {
      "mesh": 0,
      "name": "Object_2"
    }
  ],
  "samplers": [
    {
      "magFilter": 9729,
      "minFilter": 9987,
      "wrapS": 10497,
      "wrapT": 10497
    }
  ],
  "scene": 0,
  "scenes": [
    {
      "name": "Sketchfab_Scene",
      "nodes": [
        0
      ]
    }
  ],
  "textures": [
    {
      "sampler": 0,
      "source": 0
    },
    {
      "sampler": 0,
      "source": 1
    },
    {
      "sampler": 0,
      "source": 2
    }
  ]
}
