{
  "accessors": [
    {
      "bufferView": 2,
      "componentType": 5126,
      "count": 1678,
      "max": [
        4.826696395874023,
        -29.95871353149414,
        3.0825212001800537
      ],
      "min": [
        -4.826696395874023,
        -30.72262954711914,
        -2.7986197471618652
      ],
      "type": "VEC3"
    },
    {
      "bufferView": 2,
      "byteOffset": 20136,
      "componentType": 5126,
      "count": 1678,
      "max": [
        0.9994931221008301,
        0.9996775984764099,
        0.9806130528450012
      ],
      "min": [
        -0.9994930624961853,
        -1.0,
        -0.9995514154434204
      ],
      "type": "VEC3"
    },
    {
      "bufferView": 3,
      "componentType": 5126,
      "count": 1678,
      "max": [
        0.9975101947784424,
        0.9993127584457397,
        0.9022605419158936,
        1.0
      ],
      "min": [
        -0.9975100755691528,
        -0.9987590909004211,
        -0.9048486948013306,
        -1.0
      ],
      "type": "VEC4"
    },
    {
      "bufferView": 1,
      "componentType": 5126,
      "count": 1678,
      "max": [
        0.6808095574378967,
        0.6935336589813232
      ],
      "min": [
        0.03156381845474243,
        0.23800206184387207
      ],
      "type": "VEC2"
    },
    {
      "bufferView": 0,
      "componentType": 5125,
      "count": 8688,
      "type": "SCALAR"
    },
    {
      "bufferView": 2,
      "byteOffset": 40272,
      "componentType": 5126,
      "count": 1294,
      "max": [
        4.828733444213867,
        -28.257822036743164,
        3.0006308555603027
      ],
      "min": [
        -4.830868244171143,
        -30.543682098388672,
        -2.726840019226074
      ],
      "type": "VEC3"
    },
    {
      "bufferView": 2,
      "byteOffset": 55800,
      "componentType": 5126,
      "count": 1294,
      "max": [
        0.9975551962852478,
        0.9886252284049988,
        0.9812982082366943
      ],
      "min": [
        -0.9967551827430725,
        -0.9998819231987,
        -0.9965408444404602
      ],
      "type": "VEC3"
    },
    {
      "bufferView": 3,
      "byteOffset": 26848,
      "componentType": 5126,
      "count": 1294,
      "max": [
        0.9928619861602783,
        0.997737467288971,
        0.8187272548675537,
        1.0
      ],
      "min": [
        -0.9928594827651978,
        -0.9406216740608215,
        -0.6413224935531616,
        -1.0
      ],
      "type": "VEC4"
    },
    {
      "bufferView": 1,
      "byteOffset": 13424,
      "componentType": 5126,
      "count": 1294,
      "max": [
        0.9667428731918335,
        0.9831411242485046
      ],
      "min": [
        0.015667159110307693,
        0.6082028746604919
      ],
      "type": "VEC2"
    },
    {
      "bufferView": 0,
      "byteOffset": 34752,
      "componentType": 5125,
      "count": 6756,
      "type": "SCALAR"
    },
    {
      "bufferView": 2,
      "byteOffset": 71328,
      "componentType": 5126,
      "count": 1860,
      "max": [
        4.57898473739624,
        -28.447336196899414,
        0.9951006770133972
      ],
      "min": [
        -4.578984260559082,
        -30.295806884765625,
        -2.7832751274108887
      ],
      "type": "VEC3"
    },
    {
      "bufferView": 2,
      "byteOffset": 93648,
      "componentType": 5126,
      "count": 1860,
      "max": [
        0.996270477771759,
        0.9940637946128845,
        0.9866667985916138
      ],
      "min": [
        -0.9964345693588257,
        -0.997618556022644,
        -0.992000162601471
      ],
      "type": "VEC3"
    },
    {
      "bufferView": 3,
      "byteOffset": 47552,
      "componentType": 5126,
      "count": 1860,
      "max": [
        0.9986580014228821,
        0.9797389507293701,
        0.9979722499847412,
        1.0
      ],
      "min": [
        -0.9986578822135925,
        -0.9783141613006592,
        -0.9987495541572571,
        -1.0
      ],
      "type": "VEC4"
    },
    {
      "bufferView": 1,
      "byteOffset": 23776,
      "componentType": 5126,
      "count": 1860,
      "max": [
        0.9538870453834534,
        0.49261313676834106
      ],
      "min": [
        0.5003452897071838,
        0.01930379867553711
      ],
      "type": "VEC2"
    },
    {
      "bufferView": 0,
      "byteOffset": 61776,
      "componentType": 5125,
      "count": 10032,
      "type": "SCALAR"
    },
    {
      "bufferView": 2,
      "byteOffset": 115968,
      "componentType": 5126,
      "count": 626,
      "max": [
        4.497790813446045,
        -28.464771270751953,
        0.8829137086868286
      ],
      "min": [
        -4.497790813446045,
        -30.172401428222656,
        -2.723163604736328
      ],
      "type": "VEC3"
    },
    {
      "bufferView": 2,
      "byteOffset": 123480,
      "componentType": 5126,
      "count": 626,
      "max": [
        0.994741678237915,
        0.9982176423072815,
        0.9967664480209351
      ],
      "min": [
        -0.9947417378425598,
        -0.8188593983650208,
        -0.769862711429596
      ],
      "type": "VEC3"
    },
    {
      "bufferView": 3,
      "byteOffset": 77312,
      "componentType": 5126,
      "count": 626,
      "max": [
        0.9985139966011047,
        0.5549141764640808,
        0.99955153465271,
        1.0
      ],
      "min": [
        -0.9980705380439758,
        -0.4544360041618347,
        -0.9995680451393127,
        -1.0
      ],
      "type": "VEC4"
    },
    {
      "bufferView": 1,
      "byteOffset": 38656,
      "componentType": 5126,
      "count": 626,
      "max": [
        0.4845486879348755,
        0.22315886616706848
      ],
      "min": [
        0.015618222765624523,
        0.024851270020008087
      ],
      "type": "VEC2"
    },
    {
      "bufferView": 0,
      "byteOffset": 101904,
      "componentType": 5125,
      "count": 3192,
      "type": "SCALAR"
    },
    {
      "bufferView": 2,
      "byteOffset": 130992,
      "componentType": 5126,
      "count": 800,
      "max": [
        4.0013322830200195,
        -28.478912353515625,
        0.706258237361908
      ],
      "min": [
        -4.0013322830200195,
        -29.08759307861328,
        -0.08896540105342865
      ],
      "type": "VEC3"
    },
    {
      "bufferView": 2,
      "byteOffset": 140592,
      "componentType": 5126,
      "count": 800,
      "max": [
        0.9579191207885742,
        0.9997386932373047,
        0.9225522875785828
      ],
      "min": [
        -0.9579191207885742,
        -0.9993597269058228,
        -0.9435508251190186
      ],
      "type": "VEC3"
    },
    {
      "bufferView": 3,
      "byteOffset": 87328,
      "componentType": 5126,
      "count": 800,
      "max": [
        0.9849391579627991,
        0.9566524624824524,
        0.9868788123130798,
        1.0
      ],
      "min": [
        -0.9849395155906677,
        -0.9564561247825623,
        -0.8961864709854126,
        -1.0
      ],
      "type": "VEC4"
    },
    {
      "bufferView": 1,
      "byteOffset": 43664,
      "componentType": 5126,
      "count": 800,
      "max": [
        0.9782881140708923,
        0.6447663903236389
      ],
      "min": [
        0.8585924506187439,
        0.4279767870903015
      ],
      "type": "VEC2"
    },
    {
      "bufferView": 0,
      "byteOffset": 114672,
      "componentType": 5125,
      "count": 3456,
      "type": "SCALAR"
    }
  ],
  "asset": {
    "extras": {
      "author": "hwa021216 (https://sketchfab.com/hwa021216)",
      "license": "CC-BY-4.0 (http://creativecommons.org/licenses/by/4.0/)",
      "source": "https://sketchfab.com/3d-models/old-man-shoes-17a377d9ed0b40a49e2f51384006337a",
      "title": "Old Man Shoes"
    },
    "generator": "Sketchfab-15.36.0",
    "version": "2.0"
  },
  "bufferViews": [
    {
      "buffer": 0,
      "byteLength": 128496,
      "name": "floatBufferViews",
      "target": 34963
    },
    {
      "buffer": 0,
      "byteLength": 50064,
      "byteOffset": 128496,
      "byteStride": 8,
      "name": "floatBufferViews",
      "target": 34962
    },
    {
      "buffer": 0,
      "byteLength": 150192,
      "byteOffset": 178560,
      "byteStride": 12,
      "name": "floatBufferViews",
      "target": 34962
    },
    {
      "buffer": 0,
      "byteLength": 100128,
      "byteOffset": 328752,
      "byteStride": 16,
      "name": "floatBufferViews",
      "target": 34962
    }
  ],
  "buffers": [
    {
      "byteLength": 428880,
      "uri": "scene.bin"
    }
  ],
  "images": [
    {
      "uri": "textures/loganaiStandardSurface2_baseColor.png"
    },
    {
      "uri": "textures/loganaiStandardSurface2_metallicRoughness.png"
    },
    {
      "uri": "textures/loganaiStandardSurface2_normal.png"
    }
  ],
  "materials": [
    {
      "doubleSided": true,
      "name": "loganaiStandardSurface2",
      "normalTexture": {
        "index": 2
      },
      "pbrMetallicRoughness": {
        "baseColorTexture": {
          "index": 0
        },
        "metallicFactor": 0.0,
        "metallicRoughnessTexture": {
          "index": 1
        }
      }
    }
  ],
  "meshes": [
    {
      "name": "logan:shoes_part1_low_logan:aiStandardSurface2_0",
      "primitives": [
        {
          "attributes": {
            "NORMAL": 1,
            "POSITION": 0,
            "TANGENT": 2,
            "TEXCOORD_0": 3
          },
          "indices": 4,
          "material": 0,
          "mode": 4
        }
      ]
    },
    {
      "name": "logan:Shoes_part2_high_logan:aiStandardSurface2_0",
      "primitives": [
        {
          "attributes": {
            "NORMAL": 6,
            "POSITION": 5,
            "TANGENT": 7,
            "TEXCOORD_0": 8
          },
          "indices": 9,
          "material": 0,
          "mode": 4
        }
      ]
    },
    {
      "name": "logan:Shoes_part3_high_logan:aiStandardSurface2_0",
      "primitives": [
        {
          "attributes": {
            "NORMAL": 11,
            "POSITION": 10,
            "TANGENT": 12,
            "TEXCOORD_0": 13
          },
          "indices": 14,
          "material": 0,
          "mode": 4
        }
      ]
    },
    {
      "name": "logan:shoes_part4_low_logan:aiStandardSurface2_0",
      "primitives": [
        {
          "attributes": {
            "NORMAL": 16,
            "POSITION": 15,
            "TANGENT": 17,
            "TEXCOORD_0": 18
          },
          "indices": 19,
          "material": 0,
          "mode": 4
        }
      ]
    },
    {
      "name": "logan:shoes_part5_low_logan:aiStandardSurface2_0",
      "primitives": [
        {
          "attributes": {
            "NORMAL": 21,
            "POSITION": 20,
            "TANGENT": 22,
            "TEXCOORD_0": 23
          },
          "indices": 24,
          "material": 0,
          "mode": 4
        }
      ]
    }
  ],
  "nodes": [
    {
      "children": [
        1
      ],
      "matrix": [
        1.5923209190368652,
        0.0,
        0.0,
        0.0,
        0.0,
        3.535662693814035e-16,
        -1.5923209190368652,
        0.0,
        0.0,
        1.5923209190368652,
        3.535662693814035e-16,
        0.0,
        0.0,
        0.0,
        0.0,
        1.0
      ],
      "name": "Sketchfab_model"
    },
    {
      "children": [
        2
      ],
      "matrix": [
        0.009999999776482582,
        0.0,
        0.0,
        0.0,
        0.0,
        0.0,
        0.009999999776482582,
        0.0,
        0.0,
        -0.009999999776482582,
        0.0,
        0.0,
        0.0,
        0.0,
        0.0,
        1.0
      ],
      "name": "c4133aca9b594478a8e0920c5132ef0b.fbx"
    },
    {
      "children": [
        3
      ],
      "name": "RootNode"
    },
    {
      "children": [
        4,
        6,
        8,
        9,
        11,
        13
      ],
      "name": "logan1"
    },
    {
      "children": [
        5
      ],
      "matrix": [
        5.530791282653809,
        0.0,
        0.0,
        0.0,
        0.0,
        5.530791282653809,
        0.0,
        0.0,
        0.0,
        0.0,
        5.530791282653809,
        0.0,
        0.0,
        169.38526916503906,
        0.0,
        1.0
      ],
      "name": "logan:shoes_part1_low"
    },
    {
      "mesh": 0,
      "name": "logan:shoes_part1_low_logan:aiStandardSurface2_0"
    },
    {
      "children": [
        7
      ],
      "matrix": [
        5.530791282653809,
        0.0,
        0.0,
        0.0,
        0.0,
        5.530791282653809,
        0.0,
        0.0,
        0.0,
        0.0,
        5.530791282653809,
        0.0,
        0.0,
        169.38526916503906,
        0.0,
        1.0
      ],
      "name": "logan:Shoes_part2_high"
    },
    {
      "mesh": 1,
      "name": "logan:Shoes_part2_high_logan:aiStandardSurface2_0"
    },
    {
      "matrix": [
        0.9145078659057617,
        0.0,
        0.0,
        0.0,
        0.0,
        0.9145078659057617,
        0.0,
        0.0,
        0.0,
        0.0,
        0.9145078659057617,
        0.0,
        1.1153712272644043,
        -1.068246603012085,
        0.8087408542633057,
        1.0
      ],
      "name": "logan_eye1:logan_06:logan:face_low"
    },
    {
      "children": [
        10
      ],
      "matrix": [
        5.530791282653809,
        0.0,
        0.0,
        0.0,
        0.0,
        5.530791282653809,
        0.0,
        0.0,
        0.0,
        0.0,
        5.530791282653809,
        0.0,
        0.0,
        169.38526916503906,
        0.0,
        1.0
      ],
      "name": "logan:Shoes_part3_high"
    },
    {
      "mesh": 2,
      "name": "logan:Shoes_part3_high_logan:aiStandardSurface2_0"
    },
    {
      "children": [
        12
      ],
      "matrix": [
        5.530791282653809,
        0.0,
        0.0,
        0.0,
        0.0,
        5.530791282653809,
        0.0,
        0.0,
        0.0,
        0.0,
        5.530791282653809,
        0.0,
        0.0,
        169.38526916503906,
        0.0,
        1.0
      ],
      "name": "logan:shoes_part4_low"
    },
    {
      "mesh": 3,
      "name": "logan:shoes_part4_low_logan:aiStandardSurface2_0"
    },
    {
      "children": [
        14
      ],
      "matrix": [
        5.530791282653809,
        0.0,
        0.0,
        0.0,
        0.0,
        5.530791282653809,
        0.0,
        0.0,
        0.0,
        0.0,
        5.530791282653809,
        0.0,
        0.0,
        169.38526916503906,
        -4.440892098500626e-16,
        1.0
      ],
      "name": "logan:shoes_part5_low"
    },
    {
      "mesh": 4,
      "name": "logan:shoes_part5_low_logan:aiStandardSurface2_0"
    }
  ],
  "samplers": [
    {
      "magFilter": 9729,
      "minFilter": 9987,
      "wrapS": 10497,
      "wrapT": 10497
    }
  ],
  "scene": 0,
  "scenes": [
    {
      "name": "Sketchfab_Scene",
      "nodes": [
        0
      ]
    }
  ],
  "textures": [
    {
      "sampler": 0,
      "source": 0
    },
    {
      "sampler": 0,
      "source": 1
    },
    {
      "sampler": 0,
      "source": 2
    }
  ]
}
